<svg width="36" height="36" viewBox="0 0 36 36" fill="none" xmlns="http://www.w3.org/2000/svg">
<mask id="path-1-inside-1_383_9455" fill="white">
<path d="M0 8C0 3.58172 3.58172 0 8 0H28C32.4183 0 36 3.58172 36 8V28C36 32.4183 32.4183 36 28 36H8C3.58172 36 0 32.4183 0 28V8Z"/>
</mask>
<path d="M0 8C0 3.58172 3.58172 0 8 0H28C32.4183 0 36 3.58172 36 8V28C36 32.4183 32.4183 36 28 36H8C3.58172 36 0 32.4183 0 28V8Z" fill="white"/>
<path d="M8 0V1H28V0V-1H8V0ZM36 8H35V28H36H37V8H36ZM28 36V35H8V36V37H28V36ZM0 28H1V8H0H-1V28H0ZM8 36V35C4.13401 35 1 31.866 1 28H0H-1C-1 32.9706 3.02944 37 8 37V36ZM36 28H35C35 31.866 31.866 35 28 35V36V37C32.9706 37 37 32.9706 37 28H36ZM28 0V1C31.866 1 35 4.13401 35 8H36H37C37 3.02944 32.9706 -1 28 -1V0ZM8 0V-1C3.02944 -1 -1 3.02944 -1 8H0H1C1 4.13401 4.13401 1 8 1V0Z" fill="black" mask="url(#path-1-inside-1_383_9455)"/>
<path d="M16.8457 24C16.9627 24.2027 17.131 24.371 17.3337 24.488C17.5364 24.605 17.7663 24.6666 18.0004 24.6666C18.2344 24.6666 18.4643 24.605 18.667 24.488C18.8697 24.371 19.038 24.2027 19.155 24" stroke="black" stroke-width="1.33333" stroke-linecap="round" stroke-linejoin="round"/>
<path d="M12.1742 20.2173C12.0871 20.3127 12.0296 20.4314 12.0087 20.5589C11.9879 20.6864 12.0045 20.8173 12.0567 20.9355C12.1088 21.0538 12.1941 21.1543 12.3023 21.2249C12.4106 21.2955 12.537 21.3332 12.6662 21.3333H23.3328C23.462 21.3333 23.5885 21.2958 23.6968 21.2253C23.805 21.1548 23.8905 21.0544 23.9428 20.9363C23.995 20.8181 24.0118 20.6873 23.9911 20.5598C23.9704 20.4322 23.9131 20.3135 23.8262 20.2179C22.9395 19.3039 21.9995 18.3326 21.9995 15.3333C21.9995 14.2724 21.5781 13.255 20.8279 12.5048C20.0778 11.7547 19.0604 11.3333 17.9995 11.3333C16.9386 11.3333 15.9212 11.7547 15.1711 12.5048C14.4209 13.255 13.9995 14.2724 13.9995 15.3333C13.9995 18.3326 13.0588 19.3039 12.1742 20.2173Z" stroke="black" stroke-width="1.33333" stroke-linecap="round" stroke-linejoin="round"/>
</svg>
