<svg width="36" height="36" viewBox="0 0 36 36" fill="none" xmlns="http://www.w3.org/2000/svg">
<path d="M3 3H5.61001C7.23001 3 8.505 4.395 8.37 6L7.125 20.94C6.915 23.385 8.84999 25.485 11.31 25.485H27.285C29.445 25.485 31.335 23.715 31.5 21.57L32.31 10.32C32.49 7.83001 30.6 5.80499 28.095 5.80499H8.73001" stroke="black" stroke-width="1.5" stroke-linecap="round" stroke-linejoin="round"/>
<path fill-rule="evenodd" clip-rule="evenodd" d="M24.375 33C23.3395 33 22.5 32.1605 22.5 31.125C22.5 30.0895 23.3395 29.25 24.375 29.25C25.4105 29.25 26.25 30.0895 26.25 31.125C26.25 32.1605 25.4105 33 24.375 33Z" stroke="black" stroke-width="1.5" stroke-linecap="round" stroke-linejoin="round"/>
<path fill-rule="evenodd" clip-rule="evenodd" d="M12.375 33C11.3395 33 10.5 32.1605 10.5 31.125C10.5 30.0895 11.3395 29.25 12.375 29.25C13.4105 29.25 14.25 30.0895 14.25 31.125C14.25 32.1605 13.4105 33 12.375 33Z" stroke="black" stroke-width="1.5" stroke-linecap="round" stroke-linejoin="round"/>
<path d="M13.5 12H31.5" stroke="black" stroke-width="1.5" stroke-linecap="round" stroke-linejoin="round"/>
</svg>
